<?xml version="1.0" encoding="utf-8"?>
<!-- Generator: Adobe Illustrator 16.0.0, SVG Export Plug-In . SVG Version: 6.00 Build 0)  -->
<!DOCTYPE svg PUBLIC "-//W3C//DTD SVG 1.0//EN" "http://www.w3.org/TR/2001/REC-SVG-20010904/DTD/svg10.dtd">
<svg version="1.0" id="Ebene_1" xmlns="http://www.w3.org/2000/svg" xmlns:xlink="http://www.w3.org/1999/xlink" x="0px" y="0px"
	 width="100px" height="100px" viewBox="0 0 100 100" enable-background="new 0 0 100 100" xml:space="preserve">
<g>
	<path d="M70.895,16.058c14.489,0,26.276,11.789,26.276,26.279c0,7.756-3.401,15.075-9.334,20.086l-37.872,29.23l-37.697-29.06
		c-6.063-5.015-9.54-12.396-9.54-20.257c0-14.49,11.788-26.279,26.278-26.279c7.394,0,14.488,3.143,19.462,8.622l1.481,1.631
		l1.481-1.631C56.405,19.201,63.499,16.058,70.895,16.058 M70.895,14.058c-8.303,0-15.771,3.579-20.945,9.277
		c-5.173-5.698-12.639-9.277-20.943-9.277c-15.618,0-28.278,12.66-28.278,28.279c0,8.784,4.006,16.635,10.292,21.82l38.946,30.021
		l39.127-30.199c6.161-5.188,10.078-12.957,10.078-21.643C99.171,26.718,86.514,14.058,70.895,14.058L70.895,14.058z"/>
</g>
</svg>
